PathFileType	4	(X/Y/Z)	Patient4_TMGait_0pt3_01_right_15.trc.trc
DataRate	CameraRate	NumFrames	NumMarkers	Units	OrigDataRate	OrigDataStartFrame	OrigNumFrames
54.263565891473	54.263565891473	6	33	mm	54.263565891473	106	       141
Frame#	Time	Sacral			L.Shoulder			Chest			R.Shoulder			Neck			R.ASIS			L.ASIS			R.Thigh.Superior			R.Thigh.Lateral			R.Thigh.Inferior			R.Patella			L.Thigh.Superior			L.Thigh.Lateral			L.Thigh.Inferior			L.Patella			L.Shank.Superior			L.Shank.Lateral			L.Shank.Inferior			R.Shank.Superior			R.Shank.Lateral			R.Shank.Inferior			R.Heel			R.Midfoot.Superior			R.Midfoot.Lateral			R.Toe			L.Heel			L.Midfoot.Lateral			L.Midfoot.Superior			L.Toe			L.Elbow			L.Wrist			R.Elbow			R.Wrist			
		X1	Y1	Z1	X2	Y2	Z2	X3	Y3	Z3	X4	Y4	Z4	X5	Y5	Z5	X6	Y6	Z6	X7	Y7	Z7	X8	Y8	Z8	X9	Y9	Z9	X10	Y10	Z10	X11	Y11	Z11	X12	Y12	Z12	X13	Y13	Z13	X14	Y14	Z14	X15	Y15	Z15	X16	Y16	Z16	X17	Y17	Z17	X18	Y18	Z18	X19	Y19	Z19	X20	Y20	Z20	X21	Y21	Z21	X22	Y22	Z22	X23	Y23	Z23	X24	Y24	Z24	X25	Y25	Z25	X26	Y26	Z26	X27	Y27	Z27	X28	Y28	Z28	X29	Y29	Z29	X30	Y30	Z30	X31	Y31	Z31	X32	Y32	Z32	X33	Y33	Z33	

106	28.855000000000	754.910437525366	982.490472810863	456.825693821932	927.491424734755	1425.058745069502	291.186613264550	1021.515362668699	1354.675688519765	456.529089321506	926.762285169118	1419.603834443243	627.318952492103	905.866898525250	1483.258321200399	449.953927642040	985.414375980162	931.922544553232	579.525630061635	978.865163923875	954.010019787761	304.633806461998	1073.050518008922	759.859018972619	550.945735086590	1031.909963641630	638.713603555327	622.253555223403	1122.669770567182	599.755844684086	542.794751247281	1139.091849274379	485.766792418796	569.131261147021	1042.375170467446	744.809193389006	348.184618809089	965.688796801649	617.122549982600	296.730546087271	1051.662562892867	548.678340998639	370.044191668213	1055.113294384609	474.611254578427	382.810157892656	1015.165831372774	400.343198143596	377.369819239223	912.844129969600	297.061227845375	327.820692042823	941.567558611517	183.249108268590	403.796817160580	1057.660060880612	414.541178106354	577.541937081327	927.937371913641	384.448643423934	626.653077863035	915.232334314581	271.537703960637	586.680760784128	718.851588959142	220.416531424214	535.413763962119	872.451036711505	151.293132429435	609.606339407911	759.359464415562	165.454183941041	623.417555273918	918.068486852489	35.704037687414	656.831431413890	793.724557342945	38.467070707911	443.979017329496	868.095171117740	36.482332879011	363.717342085093	952.720518966078	95.522039172336	392.299039098600	1080.174965162370	40.557275975087	361.372417871685	996.602214888546	1098.886973190390	132.561735160153	1202.237596806992	937.591929537460	155.144699744804	902.077214361615	1066.350536748069	736.188444548226	1001.892107278675	826.138423101203	750.977809367450	
107	28.873428571429	753.804115350829	982.415098329079	453.855255035878	930.702026208414	1425.701950056665	291.570440092077	1021.635992776081	1354.223976935085	458.103998374687	924.156987256730	1418.417353669679	627.624252020068	906.562540486291	1483.244681075270	450.476798629996	983.194229959741	932.302844494878	579.136467236201	979.315919357342	953.698685199703	304.060310492284	1073.244870727925	762.982545191630	549.754644284437	1034.717645242261	641.397390120967	621.161990003470	1125.715343905395	603.975897454629	541.285311050165	1145.125021958679	490.890180093501	567.881910950133	1041.462423180740	743.767293971786	347.517714064192	964.016634607478	616.412272377711	296.109326055317	1049.291403366195	547.586940513394	369.758998141888	1052.289719301747	473.553055922273	382.722917854244	1011.817035791048	399.455102503715	377.206297616204	908.960694321265	296.703573065389	327.585071595343	936.727572176309	182.801111206057	403.732020049129	1066.333074392677	417.394100635321	576.650220183042	938.316402698953	382.008358672584	625.947044828231	930.391232651272	268.768713600886	585.970057312883	736.248395025511	207.108198124908	535.539316644253	893.922290683064	148.489092019391	609.148035972401	780.530144160490	155.150931543354	623.312645613173	946.671772665938	36.356577295399	655.892181270062	788.161877067254	38.499593037693	443.915922776263	862.567458030793	36.476984051233	363.667345431638	947.217588959997	95.447165090166	392.270120162904	1074.668866289014	40.422590169227	361.311945984633	1007.908493359842	1102.902249856008	131.032510974363	1220.265144750581	950.848036434509	155.755859021242	885.850598229187	1065.859897843031	733.800392271842	970.150470313885	819.704811042629	748.765424319907	
108	28.891857142857	752.771544786841	982.905884323060	451.038646083140	934.173429922660	1426.687862440161	292.171723109201	1021.875373149455	1354.146967747363	459.915049681523	921.626594564416	1417.788219832615	628.008541059164	907.412799056980	1483.625344082744	451.106766835499	980.814992751632	933.020452604607	579.111735594345	979.811107374673	953.729038810496	303.892955551208	1072.639961479953	765.965460341831	549.067919689275	1036.208821031940	644.075059714776	620.536358315794	1127.250462841982	607.864635190551	540.310944085974	1149.502860153538	496.093267636043	567.218607249366	1040.125264232965	742.878255654913	347.211116070557	961.706379651753	616.057926500281	295.608442369597	1046.043314972200	546.674120064024	369.599470276840	1048.462930579796	472.771888349686	382.713435951908	1007.655990612466	398.886569600708	377.060455568379	904.516631917588	296.462018503282	327.327869906456	931.593126312564	182.522880777542	403.654305262576	1074.030022605875	420.174878380731	576.323058195950	948.527953774869	378.421971466047	626.029346717850	946.354801741046	265.130538986424	585.900779291439	755.643932479672	191.431376226320	536.566575581070	917.272946314419	144.724462598048	609.244635829192	804.060443133163	143.018226968470	623.975629202448	977.939552545580	37.177331360317	655.403929687601	782.588974310980	38.521526287679	443.834489181010	857.020873350177	36.462781862481	363.607677260678	941.684482140461	95.390845923125	392.216026030060	1069.141033074269	40.329880952077	361.260968816511	1019.002804856434	1107.355705284625	129.937509316547	1237.570249972615	964.771937238681	157.014326873467	869.977141516912	1066.420857979478	731.181344971478	939.440973535781	815.566554869889	745.826476825069	
109	28.910285714286	751.831122848698	983.962146277911	448.373310661558	937.874687313427	1428.004228720389	292.986236431748	1022.226597577909	1354.459785640301	461.953987707802	919.177119990650	1417.742228339230	628.468362700682	908.405565562143	1484.398010437285	451.827779072925	978.305584764331	934.066777110816	579.444900754647	980.384691126865	954.124272350272	304.125259404265	1071.271371141259	768.730833008896	548.923751792084	1036.331525049539	646.644256056153	620.408299738101	1127.280580961143	611.303378762668	539.950606370279	1152.162622403753	501.264854451927	567.172275344549	1038.346080290582	742.150340864466	347.276945177615	958.739616324532	616.086253291198	295.210260435174	1041.866261191452	545.956786625458	369.558951719087	1043.565615028690	472.288963328522	382.766574464319	1002.638711320051	398.658812968273	376.913342315757	899.478855068896	296.343490584480	327.035375182840	926.153250801874	182.428729060263	403.562020407891	1080.669870456967	422.880859793274	576.564837575237	958.566176695624	373.896646521761	626.874710980933	963.009825418339	260.933512345233	586.464777025907	777.129003755008	174.113621366121	538.379861180743	942.217531402016	140.371167005511	609.851486414740	829.813375364905	129.735079878849	625.309703804728	1011.209374902736	38.453255758804	655.370176551338	777.006961984395	38.533424426492	443.733908901351	851.454452536379	36.439587346201	363.540202219630	936.122656009477	95.356630767097	392.137558233838	1063.590522767031	40.279722610497	361.222499785977	1029.866067963443	1112.199655227238	129.273271120943	1254.070990575320	979.209660827910	158.896736276830	854.567114271366	1068.024555835022	728.360960715030	910.132918562541	813.589293010159	742.279439948421	
110	28.928714285714	750.999777343096	985.537040043417	445.864115674984	941.763941451831	1429.603638550696	294.010296231802	1022.683059923015	1355.137302369189	464.207704908535	916.823183770183	1418.257494683750	629.004573613253	909.526457046032	1485.525075149954	452.633226529104	975.703130770992	935.398919187505	580.124071716474	981.063249139845	954.869113638999	304.743375744468	1069.186716150993	771.187887608785	549.354974393332	1035.060216588123	648.991569580527	620.795285975529	1125.850211834663	614.182118739476	540.269342728977	1153.082829669226	506.284446940288	567.741457675676	1036.126187351192	741.572570949332	347.711764076479	955.126827966034	616.496274153137	294.892746528552	1036.750167269804	545.435249982118	369.619907499288	1037.578866188406	472.105285800287	382.860153200701	996.763702436762	398.772384220701	376.742685701680	893.842165562465	296.345606840529	326.693920974591	920.412976306221	182.522369784393	403.452910256279	1086.187484694502	425.504546859861	577.350478339454	968.405207663626	368.680001557731	628.435621499868	980.166747580294	256.514789403038	587.624646658484	800.612257770012	155.944762553485	540.870260603581	968.378491071902	135.843243277048	610.893270425591	857.516719791068	116.006590416633	627.205123507854	1045.764455192061	40.476268381803	655.707665670591	771.415912377851	38.535382518137	443.616198231473	845.867840508976	36.407564964392	363.466938228756	930.534387969696	95.346376236541	392.036323429224	1058.016845785017	40.271887062299	361.199138012709	1040.477296001438	1117.355509371316	129.038461705054	1269.709550702303	993.981913223808	161.369784400820	839.728632333584	1070.603902517011	725.383755539574	882.554727010486	813.555447153451	738.260186630724	
111	28.947142857143	750.294430597353	987.537713949528	443.524022333647	945.790126808728	1431.404440927052	295.240071094472	1023.237783242401	1356.113835962351	466.658428431077	914.586529853057	1419.263734617311	629.622074009925	910.758797006672	1486.933886703856	453.525907237666	973.052175251089	936.939315543185	581.132057766065	981.863893181419	955.908252324324	305.728064147216	1066.450166196329	773.239408559433	550.381820700902	1032.415783255060	651.001235350104	621.697122552932	1123.052382956817	616.407872014734	541.304866448445	1152.297324800846	511.027131661839	568.889838306629	1033.488287421174	741.114980967901	348.496463727480	950.908303607058	617.258771476818	294.629500251009	1030.729086823508	545.092390134613	369.753076957604	1030.535518785238	472.200654865132	382.963728610925	990.072667183886	399.206912731786	376.523037887871	887.630386220550	296.456331377492	326.289625656969	914.392617329782	182.795933742437	403.323048136909	1090.544551175991	428.026449342781	578.628008961036	977.994115795922	363.038679903025	630.645743808437	997.559160525320	252.202002000736	589.319847488632	825.794973441064	137.723859607400	543.947182515178	995.285469204933	131.544330835988	612.276515793885	886.745754377980	102.508691378884	629.552199025884	1080.845148467608	43.479136969298	656.265046755334	765.814532835273	38.526950124947	443.486441052531	840.261163914039	36.366988194728	363.389750680328	924.922127965135	95.359933598898	391.914465882193	1052.419849471049	40.305382532962	361.192874189565	1050.815777454312	1122.715866382148	129.231669678625	1284.454035339475	1008.891782648379	164.390579347295	825.568631125827	1074.032989094535	722.308008298281	856.984686899936	815.173315642834	733.914553965949	
